<svg width="165" height="24" viewBox="0 0 165 24" fill="none"
    xmlns="http://www.w3.org/2000/svg">
    <g clip-path="url(#clip0_2024_95)">
        <path d="M0 18.2575C0.201 21.507 2.479 23.785 6.8675 23.785C10.7535 23.785 13.467 21.775 13.467 18.76C13.467 15.946 11.658 14.4385 8.844 13.869L6.1975 13.333C4.623 13.0315 3.8525 12.2945 3.8525 11.189C3.8525 9.98299 5.0585 9.04499 6.901 9.04499H7.169C9.0785 9.04499 10.2845 10.2845 10.452 11.8925H13.6345C13.6345 8.64299 11.323 6.36499 7.0015 6.36499C3.5845 6.36499 0.67 8.27449 0.67 11.524C0.67 14.204 2.613 15.745 5.561 16.3145L8.0065 16.7835C9.648 17.085 10.2845 17.822 10.2845 18.9275C10.2845 20.2675 8.9445 21.105 7.169 21.105H6.901C4.8575 21.105 3.35 20.1 3.1825 18.2575H0Z" fill="white"/>
        <path d="M17.6982 19.765C17.6982 22.0765 19.0717 23.45 21.3832 23.45H25.4032V20.6025H22.2207C21.2492 20.6025 20.8807 20.234 20.8807 19.2625V9.44701H24.9007V6.70001H20.8807V1.27301H17.6982V6.70001H14.0132V9.44701H17.6982V19.765Z" fill="white"/>
        <path d="M40.1354 23.45C40.0349 22.6795 39.9679 21.44 39.9679 19.765V12.73C39.9679 9.27949 37.4889 6.36499 33.1674 6.36499C29.3819 6.36499 26.6014 8.50899 26.4004 11.5575H29.5829C29.7504 9.94949 31.1909 9.04499 33.0334 9.04499H33.3014C35.4454 9.04499 36.7854 10.4185 36.7854 12.73V13.266L32.1624 13.6345C30.4874 13.7685 29.0469 14.2375 27.8409 15.0415C26.6684 15.8455 26.0654 17.1185 26.0654 18.827C26.0654 21.641 28.4439 23.785 31.5929 23.785C34.1724 23.785 36.2829 22.2775 36.9529 20.77C36.9529 22.0095 37.0199 22.8805 37.1204 23.45H40.1354ZM36.7854 17.42C36.7854 19.363 34.3064 21.105 32.2294 21.105H31.9614C30.4204 21.105 29.2479 20.033 29.2479 18.693C29.2479 17.1855 30.5879 16.214 32.5979 16.0465L36.7854 15.745V17.42Z" fill="white"/>
        <path d="M43.1619 23.45H46.3444V14.07C46.3444 10.9545 48.4884 9.04499 50.9004 9.04499H51.1684C53.4464 9.04499 54.5519 10.452 54.5519 12.8975V23.45H57.7344V12.2275C57.7344 8.70999 55.4899 6.36499 51.7044 6.36499C49.1584 6.36499 47.4499 7.40349 46.3444 9.04499V6.69999H43.1619V23.45Z" fill="white"/>
        <path d="M89.6332 6.70001L84.7757 20.3345L79.9182 6.70001H76.6352L82.8327 23.45H86.6852L92.8827 6.70001H89.6332Z" fill="white"/>
        <path d="M94.2428 23.45H97.4253V6.7H94.2428V23.45ZM94.0753 3.685H97.5928V0H94.0753V3.685Z" fill="white"/>
        <path d="M99.4728 18.2575C99.6738 21.507 101.952 23.785 106.34 23.785C110.226 23.785 112.94 21.775 112.94 18.76C112.94 15.946 111.131 14.4385 108.317 13.869L105.67 13.333C104.096 13.0315 103.325 12.2945 103.325 11.189C103.325 9.98299 104.531 9.04499 106.374 9.04499H106.642C108.551 9.04499 109.757 10.2845 109.925 11.8925H113.107C113.107 8.64299 110.796 6.36499 106.474 6.36499C103.057 6.36499 100.143 8.27449 100.143 11.524C100.143 14.204 102.086 15.745 105.034 16.3145L107.479 16.7835C109.121 17.085 109.757 17.822 109.757 18.9275C109.757 20.2675 108.417 21.105 106.642 21.105H106.374C104.33 21.105 102.823 20.1 102.655 18.2575H99.4728Z" fill="white"/>
        <path d="M115.429 23.45H118.611V6.7H115.429V23.45ZM115.261 3.685H118.779V0H115.261V3.685Z" fill="white"/>
        <path d="M120.927 15.075C120.927 20.2005 124.444 23.785 128.967 23.785C133.489 23.785 137.007 20.2005 137.007 15.075C137.007 9.94949 133.489 6.36499 128.967 6.36499C124.444 6.36499 120.927 9.94949 120.927 15.075ZM128.833 21.105C126.086 21.105 124.109 18.894 124.109 15.075C124.109 11.256 126.086 9.04499 128.833 9.04499H129.101C131.848 9.04499 133.824 11.256 133.824 15.075C133.824 18.894 131.848 21.105 129.101 21.105H128.833Z" fill="white"/>
        <path d="M139.33 23.45H142.513V14.07C142.513 10.9545 144.657 9.04499 147.069 9.04499H147.337C149.615 9.04499 150.72 10.452 150.72 12.8975V23.45H153.903V12.2275C153.903 8.70999 151.658 6.36499 147.873 6.36499C145.327 6.36499 143.618 7.40349 142.513 9.04499V6.69999H139.33V23.45Z" fill="white"/>
        <path d="M66.4474 23.2475H69.7305V16.5475H76.3634V13.7H69.7305V7H66.4474V13.7H59.8145V16.5475H66.4474V23.2475Z" fill="#BFFF4F"/>
        <path d="M154.001 5.14884C153.935 7.90765 156.39 10.3628 159.149 10.2968C161.908 10.3628 164.363 7.90765 164.297 5.14884C164.363 2.37684 161.908 -0.051955 159.149 0.000845152C156.39 -0.051955 153.935 2.37684 154.001 5.14884ZM163.307 5.14884C163.36 7.40604 161.38 9.39925 159.149 9.34645C156.918 9.39925 154.939 7.40604 154.991 5.14884C154.939 2.90484 156.918 0.911645 159.149 0.951245C161.38 0.911645 163.36 2.90484 163.307 5.14884ZM157.381 7.55125H158.371V5.70325H159.545C160.007 5.70325 160.192 5.87485 160.192 6.28405V7.55125H161.182V5.98044C161.182 5.41284 160.878 5.21484 160.192 5.21484C160.826 5.06964 161.248 4.64725 161.248 3.96085C161.248 3.16885 160.654 2.58805 159.611 2.58805H157.381V7.55125ZM158.371 4.84525V3.51205H159.281C159.968 3.51205 160.258 3.67045 160.258 4.13245C160.258 4.60765 159.915 4.84525 159.294 4.84525H158.371Z" fill="white"/>
    </g>
    <defs>
        <clipPath id="clip0_2024_95">
            <rect width="165" height="24" fill="white"/>
        </clipPath>
    </defs>
</svg>
